<svg width="17.500000" height="13.750000" viewBox="0 0 17.5 13.75" fill="none" xmlns="http://www.w3.org/2000/svg" xmlns:xlink="http://www.w3.org/1999/xlink">
	<desc>
			Created with Pixso.
	</desc>
	<defs/>
	<path id="Vector" d="M2.18 0C0.97 0 0 0.97 0 2.18L0 11.56C0 12.77 0.97 13.75 2.18 13.75L15.31 13.75C16.52 13.75 17.5 12.77 17.5 11.56L17.5 2.18C17.5 0.97 16.52 0 15.31 0L2.18 0ZM1.25 2.18C1.25 1.66 1.66 1.25 2.18 1.25L15.31 1.25C15.83 1.25 16.25 1.66 16.25 2.18L16.25 11.56C16.25 12.08 15.83 12.5 15.31 12.5L2.18 12.5C1.66 12.5 1.25 12.08 1.25 11.56L1.25 2.18ZM3.5 2.63C3.23 2.41 2.84 2.46 2.63 2.74C2.41 3.01 2.46 3.4 2.74 3.61L8.36 7.99C8.59 8.16 8.9 8.16 9.13 7.99L14.75 3.61C15.03 3.4 15.08 3.01 14.86 2.74C14.65 2.46 14.26 2.41 13.99 2.63L8.75 6.7L3.5 2.63Z" fill="#696A75" fill-opacity="1.000000" fill-rule="evenodd"/>
</svg>
