<!-- <svg width="14.000000" height="20" viewBox="0 0 14 8" fill="none" xmlns="http://www.w3.org/2000/svg" xmlnsXlink="http://www.w3.org/1999/xlink">
	<desc>
			Created with Pixso.
	</desc>
	<defs>
		<clipPath id="clip2147_4206">
			<rect id="sunny" width="14.000000" height="14.000000" fill="white" fillOpacity="0"/>
		</clipPath>
	</defs>
	<rect id="sunny" width="14.000000" height="14.000000" fill="#FFFFFF" fillOpacity="0"/>
	<g clipPath="url(#clip2147_4206)">
		<path id="Vector" d="M7 3.22C6.84 3.22 6.68 3.16 6.57 3.05C6.46 2.93 6.39 2.78 6.39 2.62L6.39 1.31C6.39 1.15 6.46 0.99 6.57 0.88C6.68 0.77 6.84 0.71 7 0.71C7.15 0.71 7.31 0.77 7.42 0.88C7.53 0.99 7.6 1.15 7.6 1.31L7.6 2.62C7.6 2.78 7.53 2.93 7.42 3.05C7.31 3.16 7.15 3.22 7 3.22ZM7 13.28C6.84 13.28 6.68 13.22 6.57 13.11C6.46 13 6.39 12.84 6.39 12.68L6.39 11.37C6.39 11.21 6.46 11.06 6.57 10.94C6.68 10.83 6.84 10.77 7 10.77C7.15 10.77 7.31 10.83 7.42 10.94C7.53 11.06 7.6 11.21 7.6 11.37L7.6 12.68C7.6 12.84 7.53 13 7.42 13.11C7.31 13.22 7.15 13.28 7 13.28ZM10.09 4.5C9.97 4.5 9.85 4.47 9.75 4.4C9.66 4.34 9.58 4.24 9.53 4.13C9.49 4.02 9.48 3.9 9.5 3.78C9.52 3.67 9.58 3.56 9.66 3.48L10.59 2.55C10.7 2.44 10.86 2.38 11.02 2.38C11.17 2.38 11.32 2.44 11.44 2.55C11.55 2.67 11.61 2.82 11.61 2.98C11.61 3.13 11.55 3.29 11.44 3.4L10.51 4.33C10.46 4.38 10.39 4.43 10.32 4.46C10.25 4.49 10.17 4.5 10.09 4.5ZM2.97 11.62C2.85 11.62 2.74 11.58 2.64 11.52C2.54 11.45 2.46 11.36 2.42 11.25C2.37 11.14 2.36 11.02 2.38 10.9C2.41 10.78 2.46 10.68 2.55 10.59L3.48 9.66C3.53 9.61 3.6 9.56 3.67 9.53C3.74 9.5 3.82 9.48 3.9 9.48C3.98 9.48 4.06 9.5 4.14 9.53C4.21 9.56 4.28 9.6 4.33 9.66C4.39 9.71 4.43 9.78 4.46 9.85C4.49 9.93 4.51 10.01 4.51 10.09C4.51 10.17 4.49 10.25 4.46 10.32C4.43 10.39 4.38 10.46 4.33 10.51L3.4 11.44C3.34 11.5 3.28 11.54 3.2 11.57C3.13 11.6 3.05 11.62 2.97 11.62ZM12.68 7.6L11.37 7.6C11.21 7.6 11.06 7.53 10.94 7.42C10.83 7.31 10.77 7.15 10.77 7C10.77 6.84 10.83 6.68 10.94 6.57C11.06 6.46 11.21 6.39 11.37 6.39L12.68 6.39C12.84 6.39 13 6.46 13.11 6.57C13.22 6.68 13.28 6.84 13.28 7C13.28 7.15 13.22 7.31 13.11 7.42C13 7.53 12.84 7.6 12.68 7.6ZM2.62 7.6L1.31 7.6C1.15 7.6 1 7.53 0.88 7.42C0.77 7.31 0.71 7.15 0.71 7C0.71 6.84 0.77 6.68 0.88 6.57C1 6.46 1.15 6.39 1.31 6.39L2.62 6.39C2.78 6.39 2.93 6.46 3.05 6.57C3.16 6.68 3.22 6.84 3.22 7C3.22 7.15 3.16 7.31 3.05 7.42C2.93 7.53 2.78 7.6 2.62 7.6ZM11.02 11.62C10.94 11.62 10.86 11.6 10.79 11.57C10.71 11.54 10.65 11.5 10.59 11.44L9.66 10.51C9.55 10.4 9.49 10.25 9.49 10.09C9.49 9.93 9.56 9.78 9.67 9.67C9.78 9.56 9.93 9.49 10.09 9.49C10.25 9.49 10.4 9.55 10.51 9.66L11.44 10.59C11.53 10.68 11.58 10.78 11.61 10.9C11.63 11.02 11.62 11.14 11.57 11.25C11.53 11.36 11.45 11.45 11.35 11.52C11.25 11.58 11.14 11.62 11.02 11.62ZM3.9 4.5C3.82 4.5 3.74 4.49 3.67 4.46C3.6 4.43 3.53 4.38 3.48 4.33L2.55 3.4C2.44 3.29 2.38 3.13 2.38 2.98C2.38 2.82 2.44 2.67 2.55 2.55C2.67 2.44 2.82 2.38 2.97 2.38C3.13 2.38 3.29 2.44 3.4 2.55L4.33 3.48C4.41 3.56 4.47 3.67 4.49 3.78C4.51 3.9 4.5 4.02 4.46 4.13C4.41 4.24 4.33 4.34 4.24 4.4C4.14 4.47 4.02 4.5 3.9 4.5ZM7 9.78C6.44 9.78 5.9 9.62 5.45 9.31C4.99 9.01 4.63 8.57 4.42 8.06C4.21 7.55 4.15 6.99 4.26 6.45C4.37 5.91 4.63 5.41 5.02 5.02C5.41 4.63 5.91 4.37 6.45 4.26C6.99 4.15 7.55 4.21 8.06 4.42C8.57 4.63 9.01 4.99 9.31 5.45C9.62 5.9 9.78 6.44 9.78 7C9.78 7.73 9.49 8.44 8.97 8.97C8.44 9.49 7.73 9.78 7 9.78Z" fill="#52535F" fillOpacity="1.000000" fillRule="nonzero"/>
	</g>	
</svg> -->
<svg width="14.000000" height="20" viewBox="0 0 14 8" fill="none" xmlns="http://www.w3.org/2000/svg" xmlns:xlink="http://www.w3.org/1999/xlink">
 <desc>
   Created with Pixso.
 </desc>
 <defs>
  <clipPath id="clip2147_4206">
   <rect id="sunny" width="14.000000" height="14.000000" fill="white" fill-opacity="0"/>
  </clipPath>
 </defs>
 <rect id="sunny" width="14.000000" height="14.000000" fill="#FFFFFF" fill-opacity="0"/>
 <g clip-path="url(#clip2147_4206)">
  <path id="Vector" d="M7 3.22C6.84 3.22 6.68 3.16 6.57 3.05C6.46 2.93 6.39 2.78 6.39 2.62L6.39 1.31C6.39 1.15 6.46 0.99 6.57 0.88C6.68 0.77 6.84 0.71 7 0.71C7.15 0.71 7.31 0.77 7.42 0.88C7.53 0.99 7.6 1.15 7.6 1.31L7.6 2.62C7.6 2.78 7.53 2.93 7.42 3.05C7.31 3.16 7.15 3.22 7 3.22ZM7 13.28C6.84 13.28 6.68 13.22 6.57 13.11C6.46 13 6.39 12.84 6.39 12.68L6.39 11.37C6.39 11.21 6.46 11.06 6.57 10.94C6.68 10.83 6.84 10.77 7 10.77C7.15 10.77 7.31 10.83 7.42 10.94C7.53 11.06 7.6 11.21 7.6 11.37L7.6 12.68C7.6 12.84 7.53 13 7.42 13.11C7.31 13.22 7.15 13.28 7 13.28ZM10.09 4.5C9.97 4.5 9.85 4.47 9.75 4.4C9.66 4.34 9.58 4.24 9.53 4.13C9.49 4.02 9.48 3.9 9.5 3.78C9.52 3.67 9.58 3.56 9.66 3.48L10.59 2.55C10.7 2.44 10.86 2.38 11.02 2.38C11.17 2.38 11.32 2.44 11.44 2.55C11.55 2.67 11.61 2.82 11.61 2.98C11.61 3.13 11.55 3.29 11.44 3.4L10.51 4.33C10.46 4.38 10.39 4.43 10.32 4.46C10.25 4.49 10.17 4.5 10.09 4.5ZM2.97 11.62C2.85 11.62 2.74 11.58 2.64 11.52C2.54 11.45 2.46 11.36 2.42 11.25C2.37 11.14 2.36 11.02 2.38 10.9C2.41 10.78 2.46 10.68 2.55 10.59L3.48 9.66C3.53 9.61 3.6 9.56 3.67 9.53C3.74 9.5 3.82 9.48 3.9 9.48C3.98 9.48 4.06 9.5 4.14 9.53C4.21 9.56 4.28 9.6 4.33 9.66C4.39 9.71 4.43 9.78 4.46 9.85C4.49 9.93 4.51 10.01 4.51 10.09C4.51 10.17 4.49 10.25 4.46 10.32C4.43 10.39 4.38 10.46 4.33 10.51L3.4 11.44C3.34 11.5 3.28 11.54 3.2 11.57C3.13 11.6 3.05 11.62 2.97 11.62ZM12.68 7.6L11.37 7.6C11.21 7.6 11.06 7.53 10.94 7.42C10.83 7.31 10.77 7.15 10.77 7C10.77 6.84 10.83 6.68 10.94 6.57C11.06 6.46 11.21 6.39 11.37 6.39L12.68 6.39C12.84 6.39 13 6.46 13.11 6.57C13.22 6.68 13.28 6.84 13.28 7C13.28 7.15 13.22 7.31 13.11 7.42C13 7.53 12.84 7.6 12.68 7.6ZM2.62 7.6L1.31 7.6C1.15 7.6 1 7.53 0.88 7.42C0.77 7.31 0.71 7.15 0.71 7C0.71 6.84 0.77 6.68 0.88 6.57C1 6.46 1.15 6.39 1.31 6.39L2.62 6.39C2.78 6.39 2.93 6.46 3.05 6.57C3.16 6.68 3.22 6.84 3.22 7C3.22 7.15 3.16 7.31 3.05 7.42C2.93 7.53 2.78 7.6 2.62 7.6ZM11.02 11.62C10.94 11.62 10.86 11.6 10.79 11.57C10.71 11.54 10.65 11.5 10.59 11.44L9.66 10.51C9.55 10.4 9.49 10.25 9.49 10.09C9.49 9.93 9.56 9.78 9.67 9.67C9.78 9.56 9.93 9.49 10.09 9.49C10.25 9.49 10.4 9.55 10.51 9.66L11.44 10.59C11.53 10.68 11.58 10.78 11.61 10.9C11.63 11.02 11.62 11.14 11.57 11.25C11.53 11.36 11.45 11.45 11.35 11.52C11.25 11.58 11.14 11.62 11.02 11.62ZM3.9 4.5C3.82 4.5 3.74 4.49 3.67 4.46C3.6 4.43 3.53 4.38 3.48 4.33L2.55 3.4C2.44 3.29 2.38 3.13 2.38 2.98C2.38 2.82 2.44 2.67 2.55 2.55C2.67 2.44 2.82 2.38 2.97 2.38C3.13 2.38 3.29 2.44 3.4 2.55L4.33 3.48C4.41 3.56 4.47 3.67 4.49 3.78C4.51 3.9 4.5 4.02 4.46 4.13C4.41 4.24 4.33 4.34 4.24 4.4C4.14 4.47 4.02 4.5 3.9 4.5ZM7 9.78C6.44 9.78 5.9 9.62 5.45 9.31C4.99 9.01 4.63 8.57 4.42 8.06C4.21 7.55 4.15 6.99 4.26 6.45C4.37 5.91 4.63 5.41 5.02 5.02C5.41 4.63 5.91 4.37 6.45 4.26C6.99 4.15 7.55 4.21 8.06 4.42C8.57 4.63 9.01 4.99 9.31 5.45C9.62 5.9 9.78 6.44 9.78 7C9.78 7.73 9.49 8.44 8.97 8.97C8.44 9.49 7.73 9.78 7 9.78Z" fill="#52535F" fill-opacity="1.000000" fill-rule="nonzero"/>
 </g>
</svg>